<svg width="40" height="40" viewBox="0 0 40 40" fill="none" xmlns="http://www.w3.org/2000/svg">
<rect width="40" height="40" fill="#131415"/>
<g clip-path="url(#clip0_6831_4986)">
<path d="M25.3604 6.72838L22.042 10.3144C21.1258 9.32421 19.64 9.32421 18.7237 10.3144C17.8074 11.3045 17.8074 12.9102 18.7237 13.9004L15.4053 17.4863C12.6566 14.5159 12.6566 9.69932 15.4053 6.72884C18.1541 3.75836 22.6112 3.75836 25.36 6.72884L25.3604 6.72838Z" fill="white"/>
<path d="M20.5346 17.648L20.2955 17.141L19.4493 18.2695L17.5804 16.2495L19.0138 19.2915L18.0454 20.338L15.5566 17.6485L18.875 14.0625L21.3633 16.752L20.5346 17.648Z" fill="white"/>
<path d="M25.5116 6.89164L22.1934 10.4775L24.682 13.1669L28.0003 9.58098L25.5116 6.89164Z" fill="white"/>
<path d="M22.3437 25.9293C23.26 26.9194 23.26 28.5251 22.3437 29.5153C21.4275 30.5054 19.9416 30.5054 19.0254 29.5153L15.707 33.1013C18.4558 36.0717 22.9129 36.0717 25.6617 33.1013C28.4105 30.1308 28.4105 25.3142 25.6617 22.3438L22.3433 25.9297L22.3437 25.9293Z" fill="white"/>
<path d="M16.3847 26.6621L13.0664 30.248L15.555 32.9374L18.8733 29.3515L16.3847 26.6621Z" fill="white"/>
<path d="M20.5208 22.1931L19.7031 23.0762L22.1919 25.7657L25.5098 22.1797L23.0215 19.4902L22.0416 20.5491L23.4745 23.5907L21.6057 21.5711L20.7594 22.6997L20.5208 22.1931Z" fill="white"/>
</g>
<defs>
<clipPath id="clip0_6831_4986">
<rect width="16" height="31" fill="white" transform="translate(12 4.5)"/>
</clipPath>
</defs>
</svg>
